# xmcd
#
# Track frame offsets:
#       150
#       16208
#       31678
#       49503
#       66220
#       84915
#       109465
#       128473
#       143337
#       158284
#       173892
#       190288
#
# Disc length: 2748 seconds
#
# Revision: 0
# Processed by: cddbd v1.5.1PL0 Copyright (c) Steve Scherf et al.
# Submitted via: WhereIsIt 3.62
#
DISCID=850aba0c
DTITLE=태진아 - 2005 - 잘살꺼야
DYEAR=1900
DGENRE=
TTITLE0=잘살꺼야
TTITLE1=애인
TTITLE2=빗속의 여인
TTITLE3=정
TTITLE4=찻집의 고독
TTITLE5=미련
TTITLE6=아픈만큼 성숙해지고
TTITLE7=장미와 우산
TTITLE8=당신의 눈물
TTITLE9=상처
TTITLE10=가버린 사랑
TTITLE11=잘살꺼야 (MR)
EXTD=
EXTT0=
EXTT1=
EXTT2=
EXTT3=
EXTT4=
EXTT5=
EXTT6=
EXTT7=
EXTT8=
EXTT9=
EXTT10=
EXTT11=
PLAYORDER=
